# Blender v2.91.0 OBJ File: ''
# www.blender.org
mtllib collider.mtl
o Cube
v 1.000000 1.000000 -1.000000
v 1.000000 -1.000000 -1.000000
v 1.000000 1.000000 1.000000
v 1.000000 -1.000000 1.000000
v -1.000000 1.000000 -1.000000
v -1.000000 -1.000000 -1.000000
v -1.000000 1.000000 1.000000
v -1.000000 -1.000000 1.000000
v 0.838792 -1.000000 -1.000000
v 0.838792 1.000000 1.000000
v 0.838792 -1.000000 1.000000
v 0.838792 1.000000 -1.000000
v -0.848409 -1.000000 -1.000000
v -0.848409 1.000000 1.000000
v -0.848409 -1.000000 1.000000
v -0.848409 1.000000 -1.000000
v 1.000000 0.844711 -1.000000
v -1.000000 0.844711 1.000000
v 1.000000 0.844711 1.000000
v -1.000000 0.844711 -1.000000
v 0.838792 0.844711 -1.000000
v 0.838792 0.844711 1.000000
v -0.848409 0.844711 -1.000000
v -0.848409 0.844711 1.000000
v 1.000000 -0.823743 -1.000000
v 1.000000 -0.823743 1.000000
v -1.000000 -0.823743 -1.000000
v 0.838792 -0.823743 -1.000000
v 0.838792 -0.823743 1.000000
v -0.848409 -0.823743 -1.000000
v -0.848409 -0.823743 1.000000
v -1.000000 -0.823743 1.000000
v -1.000000 -1.000000 -0.833809
v 1.000000 1.000000 -0.833809
v -1.000000 1.000000 -0.833809
v 1.000000 -1.000000 -0.833809
v 0.838792 -1.000000 -0.833809
v 0.838792 1.000000 -0.833809
v -0.848409 -1.000000 -0.833809
v -0.848409 1.000000 -0.833809
v 1.000000 0.844711 -0.833809
v -1.000000 0.844711 -0.833809
v -1.000000 -0.823743 -0.833809
v 1.000000 -0.823743 -0.833809
v -1.000000 -1.000000 0.828458
v 1.000000 1.000000 0.828458
v 0.838792 -1.000000 0.828458
v 0.838792 1.000000 0.828458
v -0.848409 -1.000000 0.828458
v -0.848409 1.000000 0.828458
v 1.000000 0.844711 0.828458
v 1.000000 -0.823743 0.828458
v -1.000000 1.000000 0.828458
v 1.000000 -1.000000 0.828458
v -1.000000 0.844711 0.828458
v -1.000000 -0.823743 0.828458
vt 0.025265 0.304743
vt 0.000000 0.304743
vt 0.000000 0.333333
vt 0.025265 0.333333
vt 0.308068 0.640785
vt 0.308068 0.666667
vt 0.333333 0.666667
vt 0.333333 0.640785
vt 0.638968 0.307452
vt 0.638968 0.333333
vt 0.666667 0.333333
vt 0.666667 0.307452
vt 0.360201 0.638076
vt 0.333333 0.638076
vt 0.333333 0.666667
vt 0.360201 0.666667
vt 0.304743 0.974118
vt 0.304743 1.000000
vt 0.333333 1.000000
vt 0.333333 0.974118
vt 0.973132 0.307452
vt 0.973132 0.333333
vt 1.000000 0.333333
vt 1.000000 0.307452
vt 0.691932 0.307452
vt 0.691932 0.333333
vt 0.641402 0.638076
vt 0.641402 0.666667
vt 0.000000 0.640785
vt 0.000000 0.666667
vt 0.026868 0.666667
vt 0.026868 0.640785
vt 0.333333 0.304743
vt 0.306465 0.304743
vt 0.306465 0.333333
vt 0.333333 0.333333
vt 0.666667 0.638076
vt 0.666667 0.666667
vt 0.666667 0.029376
vt 0.691932 0.029376
vt 0.000000 0.362709
vt 0.026868 0.362709
vt 0.973132 0.029376
vt 1.000000 0.029376
vt 0.304743 0.696043
vt 0.333333 0.696043
vt 0.638968 0.029376
vt 0.308068 0.362710
vt 0.333333 0.362710
vt 0.308068 0.333333
vt 0.333333 0.333333
vt 0.638968 0.000000
vt 0.666667 0.000000
vt 0.304743 0.666667
vt 0.973132 0.000000
vt 1.000000 0.000000
vt 0.691932 0.000000
vt 0.000000 0.333333
vt 0.026868 0.333333
vt 0.000000 0.666667
vt 0.000000 0.696043
vt 0.027698 0.696043
vt 0.027698 0.666667
vt 0.361924 0.000000
vt 0.361924 0.029376
vt 0.000000 0.974118
vt 0.027698 0.974118
vt 0.306465 0.000000
vt 0.025265 0.000000
vt 0.025265 0.027698
vt 0.306465 0.027698
vt 0.666667 0.333333
vt 0.641402 0.333333
vt 0.641402 0.361032
vt 0.666667 0.361032
vt 0.333333 0.000000
vt 0.333333 0.027698
vt 0.360201 0.333333
vt 0.360201 0.361032
vt 0.000000 1.000000
vt 0.027698 1.000000
vt 0.333333 0.333333
vt 0.333333 0.361032
vt 0.361924 0.307452
vt 0.361924 0.333333
vt 0.000000 0.000000
vt 0.000000 0.027698
vt 0.333333 0.307452
vt 0.333333 0.333333
vt 0.333333 0.029376
vt 0.333333 0.000000
vn 0.0000 1.0000 0.0000
vn 0.0000 0.0000 1.0000
vn -1.0000 0.0000 0.0000
vn 0.0000 -1.0000 0.0000
vn 1.0000 0.0000 0.0000
vn 0.0000 0.0000 -1.0000
usemtl Material
s off
f 50/1/1 53/2/1 7/3/1 14/4/1
f 24/5/2 14/6/2 7/7/2 18/8/2
f 42/9/3 35/10/3 5/11/3 20/12/3
f 47/13/4 54/14/4 4/15/4 11/16/4
f 51/17/5 46/18/5 3/19/5 19/20/5
f 21/21/6 12/22/6 1/23/6 17/24/6
f 23/25/6 16/26/6 12/22/6 21/21/6
f 49/27/4 47/13/4 11/16/4 15/28/4
f 19/29/2 3/30/2 10/31/2 22/32/2
f 46/33/1 48/34/1 10/35/1 3/36/1
f 45/37/4 49/27/4 15/28/4 8/38/4
f 20/12/6 5/11/6 16/26/6 23/25/6
f 22/32/2 10/31/2 14/6/2 24/5/2
f 48/34/1 50/1/1 14/4/1 10/35/1
f 27/39/6 20/12/6 23/25/6 30/40/6
f 26/41/2 19/29/2 22/32/2 29/42/2
f 28/43/6 21/21/6 17/24/6 25/44/6
f 52/45/5 51/17/5 19/20/5 26/46/5
f 43/47/3 42/9/3 20/12/3 27/39/3
f 31/48/2 24/5/2 18/8/2 32/49/2
f 15/50/2 31/48/2 32/49/2 8/51/2
f 33/52/3 43/47/3 27/39/3 6/53/3
f 54/54/5 52/45/5 26/46/5 4/15/5
f 9/55/6 28/43/6 25/44/6 2/56/6
f 13/57/6 30/40/6 28/43/6 9/55/6
f 4/58/2 26/41/2 29/42/2 11/59/2
f 6/53/6 27/39/6 30/40/6 13/57/6
f 11/59/2 29/42/2 31/48/2 15/50/2
f 2/60/5 25/61/5 44/62/5 36/63/5
f 45/64/3 56/65/3 43/47/3 33/52/3
f 25/61/5 17/66/5 41/67/5 44/62/5
f 12/68/1 16/69/1 40/70/1 38/71/1
f 6/72/4 13/73/4 39/74/4 33/75/4
f 1/76/1 12/68/1 38/71/1 34/77/1
f 13/73/4 9/78/4 37/79/4 39/74/4
f 17/66/5 1/80/5 34/81/5 41/67/5
f 9/78/4 2/82/4 36/83/4 37/79/4
f 55/84/3 53/85/3 35/10/3 42/9/3
f 16/69/1 5/86/1 35/87/1 40/70/1
f 18/88/3 7/89/3 53/85/3 55/84/3
f 32/90/3 18/88/3 55/84/3 56/65/3
f 8/91/3 32/90/3 56/65/3 45/64/3
f 36/63/5 44/62/5 52/45/5 54/54/5
f 33/75/4 39/74/4 49/27/4 45/37/4
f 34/77/1 38/71/1 48/34/1 46/33/1
f 41/67/5 34/81/5 46/18/5 51/17/5
f 37/79/4 36/83/4 54/14/4 47/13/4
f 40/70/1 35/87/1 53/2/1 50/1/1
